<svg width="72" height="72" fill="none" xmlns="http://www.w3.org/2000/svg"><circle cx="36" cy="36" r="36" fill="url(#paint0_linear)"/><path fill-rule="evenodd" clip-rule="evenodd" d="M49.3156 23.0589v-3.7273C49.3132 17.4925 47.823 16.0023 45.984 16H19.3316c-1.8391.0023-3.3293 1.4925-3.3316 3.3316v14.6588c.0052 1.7016 1.295 3.1247 2.9877 3.2972l2.5047 6.5017c.6617 1.7168 2.5896 2.572 4.3065 1.9112l15.6409-6.0251a9.6317 9.6317 0 00.8299 8.5522l.3828.6122v6.4726a.666.666 0 00.6663.6663h11.9936a.6662.6662 0 00.6663-.6663V33.3183a8.7203 8.7203 0 00-2.5528-6.1418l-4.1103-4.1176zm0 3.9849l2.0222 5.2495c.3963 1.0305-.1172 2.1867-1.1475 2.5833l-1.1559.4464a3.3336 3.3336 0 00.2812-1.3326v-6.9466zm-31.983-7.7122v14.6588c0 1.1037.8952 1.9989 1.999 1.9989h19.974l-2.602-2.8419c-1.2805-1.4276-1.1973-3.6131.1873-4.9402 1.3842-1.3263 3.5714-1.316 4.9433.0243l6.1034 6.1041a2.017 2.017 0 00.0453-.3452V23.5818l-.0058-.0152h.0058v-4.235c0-1.1038-.8951-1.999-1.9989-1.999H19.3316c-1.1038 0-1.999.8952-1.999 1.999zm8.5361 17.9904l-4.7381 1.8242-.701-1.8242h5.4391zm-3.133 5.9881c.397 1.0301 1.5539 1.5437 2.584 1.1466l16.0733-6.1946-.8661-.9441H29.5654v.004l-7.9537 3.065 1.124 2.9231zm21.2494 11.336v-5.3305h10.661v5.3305h-10.661zm-.2965-6.6632h10.9575V33.3183a7.3791 7.3791 0 00-2.1624-5.1981l-2.1585-2.163 2.2553 5.8562c.66 1.7164-.1949 3.6427-1.9103 4.3045l-.6837.2666 2.4654 2.4653-.9422.9422-10.6178-10.6154c-.8549-.8515-2.2333-.8652-3.1054-.0303-.8717.8347-.9175 2.2125-.1032 3.1037l5.4602 5.9568a.666.666 0 01.0873.7809 8.309 8.309 0 00.1688 8.5335l.289.4617zm-18.3602-24.387c0 .9569-.7756 1.7325-1.7325 1.7325h-3.1982c-.9569 0-1.7325-.7756-1.7325-1.7325v-3.1982c0-.9569.7756-1.7325 1.7325-1.7325h3.1982c.9569 0 1.7325.7756 1.7325 1.7325v3.1982zm-5.3305-.9328v.9328c0 .2208.179.3998.3998.3998h3.1982a.3998.3998 0 00.3998-.3998v-.9328h-1.3326v-1.3326h1.3326v-.9328a.3998.3998 0 00-.3998-.3998h-3.1982a.3998.3998 0 00-.3998.3998v.9328h1.3326v1.3326h-1.3326zm1.9989 4.6642h-2.6652v1.3326h2.6652v-1.3326zm-2.6652 3.9979h2.6652v1.3326h-2.6652v-1.3326zm14.6588 0h-2.6652v1.3326h2.6652v-1.3326zm-10.661-3.9979h2.6653v1.3326h-2.6653v-1.3326zm6.6631 0h-2.6652v1.3326h2.6652v-1.3326zm1.3327 0h2.6652v1.3326h-2.6652v-1.3326zm13.9925-7.9957h-1.3326v1.9989h1.3326v-1.9989zm-3.9979 0h1.3327v1.9989h-1.3327v-1.9989zm-1.3326 0h-1.3326v1.9989h1.3326v-1.9989zm-3.9979 0h1.3327v1.9989h-1.3327v-1.9989zm10.661 32.6492v-1.3326h-1.3326v1.3326h1.3326z" fill="#fff"/><defs><linearGradient id="paint0_linear" x1="-35.8489" y1="35.8489" x2="35.8489" y2="107.547" gradientUnits="userSpaceOnUse"><stop stop-color="#33D35E"/><stop offset="1" stop-color="#2AB6D9"/></linearGradient></defs></svg>