<svg width="139" height="20" fill="none" xmlns="http://www.w3.org/2000/svg"><g fill-rule="evenodd" clip-rule="evenodd"><path d="M91.2953 15.8461c3.5005 0 5.9731-2.5149 5.9731-6.048 0-3.533-2.4726-6.0478-5.9731-6.0478-1.0513.0002-2.0113.2813-2.825.7838V0h-3.8712v15.4737h2.8977l.3693-.844c.9236.7716 2.1025 1.2164 3.4292 1.2164zm-26.6048 0c3.0208.0002 5.0259-1.5545 5.0259-3.9303 0-2.8341-2.3076-3.2429-4.0918-3.5589l-.0918-.0163-.0225-.004c-1.0695-.1907-1.927-.3436-1.927-.986 0-.527.4217-.8378 1.0495-.8378.7095 0 1.1975.3375 1.1975 1.0634h3.6669c-.0446-2.3036-1.9208-3.8436-4.8158-3.8436-2.9128 0-4.8547 1.4712-4.8547 3.75 0 2.7572 2.3368 3.2892 4.0996 3.5749 1.0922.1806 1.9528.3676 1.9528 1.0233 0 .5876-.5429.8798-1.1158.8798-.7425 0-1.3212-.3827-1.3212-1.2141H59.673c.0358 2.4632 1.919 4.0996 5.0175 4.0996zm-20.9846-4.2152c-.8 2.5946-3.0998 4.2156-5.952 4.2156-3.5472 0-6.175-2.5926-6.175-6.0657 0-3.4852 2.6068-6.048 6.175-6.048 3.6644 0 6.2017 2.6144 6.2014 5.9493 0 .3425-.0299.6851-.0808 1.0366H35.433c.2562 1.304 1.0844 1.9784 2.3209 1.9784.9147 0 1.6789-.4007 2.0553-1.0662h3.8967zm-8.2038-3.0806h4.5958c-.3436-1.1362-1.1626-1.7492-2.3442-1.7492-1.1413 0-1.9348.62-2.2516 1.7492zm15.5419 7.296c1.3204 0 2.4993-.4345 3.4303-1.1886l.3354.804h3.0271V4.0933l-2.9185-.0003-.4006.8792c-.9388-.7745-2.1348-1.2217-3.4737-1.2217-3.4762 0-5.9611 2.506-5.9611 6.0268 0 3.533 2.4849 6.069 5.9611 6.069zm-2.0213-6.06c0 1.4846 1.0781 2.5929 2.5449 2.5929 1.4667 0 2.5448-1.1083 2.5448-2.5929 0-1.4756-1.0781-2.5838-2.5448-2.5838-1.4756 0-2.5449 1.1082-2.5449 2.5838zm29.6448 5.1815c-1.5324 3.4794-2.941 4.7362-5.8764 4.7362h-1.3408v-3.3646h1.0768c1.4981 0 1.9499-.3901 2.4804-1.8049L70.3097 4.1053h4.2551l2.4126 6.2625 2.2483-6.2625h4.2067l-4.7649 10.8625zm9.5592-5.1697c0 1.4724 1.0781 2.5806 2.5448 2.5806 1.4577 0 2.5449-1.1082 2.5449-2.5806 0-1.4846-1.0781-2.5928-2.5449-2.5928-1.4667 0-2.5448 1.1082-2.5448 2.5928zm16.1433 6.0482c1.321 0 2.5-.4345 3.431-1.1886l.335.804h3.027V4.0933l-2.918-.0003-.401.8792c-.939-.7745-2.135-1.2217-3.474-1.2217-3.476 0-5.9608 2.506-5.9608 6.0268 0 3.533 2.4848 6.069 5.9608 6.069zm-2.021-6.06c0 1.4846 1.078 2.5929 2.545 2.5929 1.467 0 2.545-1.1083 2.545-2.5929 0-1.4756-1.078-2.5838-2.545-2.5838-1.476 0-2.545 1.1082-2.545 2.5838zm15.197 5.6874V9.403c0-1.447.703-2.2998 1.924-2.2998.986 0 1.483.6564 1.483 1.9795v6.391h3.915v-6.932c0-2.8964-1.734-4.7727-4.374-4.7727-1.47 0-2.732.5653-3.578 1.5085l-.538-1.1722h-2.747v11.3684h3.915zm13.749-4.8076v4.8076h-3.916V0h3.916v8.559l2.708-4.4537h4.397l-3.543 5.4183 3.902 5.9501h-4.616l-2.848-4.8076z" fill="#2D314D"/><path d="M10.8025 0L0 19.704h5.986L16.7886 0h-5.986z" fill="url(#paint0_linear)"/><path opacity=".5" d="M18.1709 0L7.3684 19.704h5.9861L24.157 0h-5.9861z" fill="url(#paint1_linear)"/><path opacity=".15" d="M25.5393 0L14.7368 19.704h5.9861L31.5254 0h-5.9861z" fill="url(#paint2_linear)"/></g><defs><linearGradient id="paint0_linear" x1="5.1327" y1="-7.4221" x2="-10.1946" y2="9.9128" gradientUnits="userSpaceOnUse"><stop stop-color="#33D35E"/><stop offset="1" stop-color="#2AB6D9"/></linearGradient><linearGradient id="paint1_linear" x1="12.5011" y1="-7.4221" x2="-2.8262" y2="9.9128" gradientUnits="userSpaceOnUse"><stop stop-color="#33D35E"/><stop offset="1" stop-color="#2AB6D9"/></linearGradient><linearGradient id="paint2_linear" x1="19.8695" y1="-7.4221" x2="4.5422" y2="9.9128" gradientUnits="userSpaceOnUse"><stop stop-color="#33D35E"/><stop offset="1" stop-color="#2AB6D9"/></linearGradient></defs></svg>